{"title":"Rio.2.2014.SR.Sinhro.BRRip.XviD-daredule.avi","uid":10518731,"size":783639562,"categoryP":"video","categoryS":"movies","magnet":"?xt=urn:btih:45c39f757f9ab39fe3f28a4cb67062c4b1f8c879&amp;dn=Rio.2.2014.SR.Sinhro.BRRip.XviD-daredule.avi&amp;tr=udp%3A%2F%2Ftracker.openbittorrent.com%3A80&amp;tr=udp%3A%2F%2Fopen.demonii.com%3A1337&amp;tr=udp%3A%2F%2Ftracker.coppersurfer.tk%3A6969&amp;tr=udp%3A%2F%2Fexodus.desync.com%3A6969","seeders":5,"leechers":0,"uploader":"stzar","files":1,"time":1404939335,"description":"General\nComplete name                  : Rio.2.2014.SR.Sinhro.BRRip.XviD-daredule.avi\nFormat                         : AVI\nFormat/Info                    : Audio Video Interleave\nFile size                      : 747 MiB\nDuration                       : 1h 41mn\nOverall bit rate               : 1 033 Kbps\nMovie name                     : Rio.2.2014.BRRip.XviD-daredule\nWriting application            : VirtualDub build 35491/release\nComment                        : Ripped by daredule\n\nVideo\nID                             : 0\nFormat                         : MPEG-4 Visual\nCodec ID/Hint                  : XviD\nDuration                       : 1h 41mn\nBit rate                       : 895 Kbps\nWidth                          : 720 pixels\nHeight                         : 306 pixels\nDisplay aspect ratio           : 2.35:1\nFrame rate                     : 23.976 fps\nColor space                    : YUV\nBits/(Pixel*Frame)             : 0.169\nStream size                    : 648 MiB (87%)\nWriting library                : XviD 64\n\nAudio\nID                             : 1\nFormat                         : MPEG Audio\nCodec ID/Hint                  : MP3\nDuration                       : 1h 41mn\nBit rate mode                  : Constant\nBit rate                       : 128 Kbps\nChannel(s)                     : 2 channels\nSampling rate                  : 48.0 KHz\nCompression mode               : Lossy\nStream size                    : 92.6 MiB (12%)","torrent":{"xt":"urn:btih:45c39f757f9ab39fe3f28a4cb67062c4b1f8c879","amp;dn":"Rio.2.2014.SR.Sinhro.BRRip.XviD-daredule.avi","amp;tr":["udp%3A%2F%2Ftracker.openbittorrent.com%3A80","udp%3A%2F%2Fopen.demonii.com%3A1337","udp%3A%2F%2Ftracker.coppersurfer.tk%3A6969","udp%3A%2F%2Fexodus.desync.com%3A6969"],"infoHash":"45c39f757f9ab39fe3f28a4cb67062c4b1f8c879","infoHashBuffer":{"type":"Buffer","data":[69,195,159,117,127,154,179,159,227,242,138,76,182,112,98,196,177,248,200,121]},"announce":[],"urlList":[]}}